<svg xmlns="http://www.w3.org/2000/svg" viewBox="0 0 91.5 63.900002" width="91.5" height="63.9"><path d="M80.1 0c-6.2 0-11.3 5.1-11.3 11.3 0 3.6 1.7 6.8 4.3 8.9L62.8 33.4c-.9-.2-1.9-.4-2.8-.4-1.4 0-2.7.3-3.9.7L43 25.2c1-1.7 1.6-3.6 1.6-5.7 0-6.2-5.1-11.3-11.3-11.3-6.2 0-11.3 5.1-11.3 11.3 0 3.3 1.4 6.3 3.7 8.4L15.5 42.1c-1.3-.5-2.7-.8-4.2-.8C5.1 41.3 0 46.4 0 52.6c0 6.2 5.1 11.3 11.3 11.3 6.2 0 11.3-5.1 11.3-11.3 0-2.5-.9-4.9-2.3-6.8l11-15.2c.7.1 1.4.2 2.1.2 1.9 0 3.6-.5 5.2-1.3L51 37.6c-1.4 1.9-2.3 4.2-2.3 6.7 0 6.2 5.1 11.3 11.3 11.3 6.2 0 11.3-5.1 11.3-11.3 0-3-1.2-5.8-3.2-7.8l11-14c.4 0 .7.1 1.1.1 6.2 0 11.3-5.1 11.3-11.3C91.5 5.1 86.4 0 80.1 0zM11.3 57.8c-2.9 0-5.3-2.4-5.3-5.3s2.4-5.3 5.3-5.3c1 0 2 .3 2.8.8.1.2.3.3.5.5.1.1.3.2.4.3 1 1 1.6 2.3 1.6 3.7-.1 3-2.4 5.3-5.3 5.3zM28 19.5c0-2.9 2.4-5.3 5.3-5.3s5.3 2.4 5.3 5.3-2.4 5.3-5.3 5.3-5.3-2.4-5.3-5.3zm31.9 30.1c-2.9 0-5.3-2.4-5.3-5.3S57 39 59.9 39s5.3 2.4 5.3 5.3-2.4 5.3-5.3 5.3zm20.2-33.1c-2.9 0-5.3-2.4-5.3-5.3s2.4-5.3 5.3-5.3 5.3 2.4 5.3 5.3-2.4 5.3-5.3 5.3z" fill="#fff"/></svg>