<?xml version="1.0" encoding="UTF-8" standalone="no"?>
<svg
   xmlns:dc="http://purl.org/dc/elements/1.1/"
   xmlns:cc="http://creativecommons.org/ns#"
   xmlns:rdf="http://www.w3.org/1999/02/22-rdf-syntax-ns#"
   xmlns:svg="http://www.w3.org/2000/svg"
   xmlns="http://www.w3.org/2000/svg"
   xmlns:sodipodi="http://sodipodi.sourceforge.net/DTD/sodipodi-0.dtd"
   xmlns:inkscape="http://www.inkscape.org/namespaces/inkscape"
   version="1.1"
   x="0px"
   y="0px"
   viewBox="0 0 91.5 63.900002"
   xml:space="preserve"
   id="svg2"
   inkscape:version="0.91 r13725"
   sodipodi:docname="logo.svg"
   width="91.5"
   height="63.900002"><metadata
     id="metadata12"><rdf:RDF><cc:Work
         rdf:about=""><dc:format>image/svg+xml</dc:format><dc:type
           rdf:resource="http://purl.org/dc/dcmitype/StillImage" /><dc:title></dc:title></cc:Work></rdf:RDF></metadata><defs
     id="defs10" /><sodipodi:namedview
     pagecolor="#ffffff"
     bordercolor="#666666"
     borderopacity="1"
     objecttolerance="10"
     gridtolerance="10"
     guidetolerance="10"
     inkscape:pageopacity="0"
     inkscape:pageshadow="2"
     inkscape:window-width="1855"
     inkscape:window-height="1056"
     id="namedview8"
     showgrid="false"
     inkscape:zoom="2.36"
     inkscape:cx="45.7"
     inkscape:cy="32"
     inkscape:window-x="65"
     inkscape:window-y="24"
     inkscape:window-maximized="1"
     inkscape:current-layer="svg2"
     fit-margin-top="0"
     fit-margin-left="0"
     fit-margin-right="0"
     fit-margin-bottom="0" /><g
     id="g4"
     style="fill:#ffffff"
     transform="translate(-4.3,-18.1)"><path
       d="m 84.4,18.1 c -6.2,0 -11.3,5.1 -11.3,11.3 0,3.6 1.7,6.8 4.3,8.9 L 67.1,51.5 c -0.9,-0.2 -1.9,-0.4 -2.8,-0.4 -1.4,0 -2.7,0.3 -3.9,0.7 L 47.3,43.3 c 1,-1.7 1.6,-3.6 1.6,-5.7 0,-6.2 -5.1,-11.3 -11.3,-11.3 -6.2,0 -11.3,5.1 -11.3,11.3 0,3.3 1.4,6.3 3.7,8.4 L 19.8,60.2 c -1.3,-0.5 -2.7,-0.8 -4.2,-0.8 -6.2,0 -11.3,5.1 -11.3,11.3 0,6.2 5.1,11.3 11.3,11.3 6.2,0 11.3,-5.1 11.3,-11.3 0,-2.5 -0.9,-4.9 -2.3,-6.8 l 11,-15.2 c 0.7,0.1 1.4,0.2 2.1,0.2 1.9,0 3.6,-0.5 5.2,-1.3 l 12.4,8.1 c -1.4,1.9 -2.3,4.2 -2.3,6.7 0,6.2 5.1,11.3 11.3,11.3 6.2,0 11.3,-5.1 11.3,-11.3 0,-3 -1.2,-5.8 -3.2,-7.8 l 11,-14 c 0.4,0 0.7,0.1 1.1,0.1 6.2,0 11.3,-5.1 11.3,-11.3 0,-6.2 -5.1,-11.3 -11.4,-11.3 z M 15.6,75.9 c -2.9,0 -5.3,-2.4 -5.3,-5.3 0,-2.9 2.4,-5.3 5.3,-5.3 1,0 2,0.3 2.8,0.8 0.1,0.2 0.3,0.3 0.5,0.5 0.1,0.1 0.3,0.2 0.4,0.3 1,1 1.6,2.3 1.6,3.7 -0.1,3 -2.4,5.3 -5.3,5.3 z M 32.3,37.6 c 0,-2.9 2.4,-5.3 5.3,-5.3 2.9,0 5.3,2.4 5.3,5.3 0,2.9 -2.4,5.3 -5.3,5.3 -2.9,0 -5.3,-2.4 -5.3,-5.3 z m 31.9,30.1 c -2.9,0 -5.3,-2.4 -5.3,-5.3 0,-2.9 2.4,-5.3 5.3,-5.3 2.9,0 5.3,2.4 5.3,5.3 0,2.9 -2.4,5.3 -5.3,5.3 z M 84.4,34.6 c -2.9,0 -5.3,-2.4 -5.3,-5.3 0,-2.9 2.4,-5.3 5.3,-5.3 2.9,0 5.3,2.4 5.3,5.3 0,2.9 -2.4,5.3 -5.3,5.3 z"
       id="path6"
       style="fill:#ffffff"
       inkscape:connector-curvature="0" /></g></svg>